<svg xmlns="http://www.w3.org/2000/svg" xmlns:xlink="http://www.w3.org/1999/xlink" aria-hidden="true" role="img" class="iconify iconify--logos" width="35.93" height="32" preserveAspectRatio="xMidYMid meet" viewBox="0 0 256 198"><defs><linearGradient id="IconifyId1813088fe1fbc01fb466" x1="0%" x2="100%" y1="100%" y2="0%"><stop offset="0%" style="stop-color:#41D1FF;stop-opacity:1"></stop><stop offset="100%" style="stop-color:#BD34FE;stop-opacity:1"></stop></linearGradient></defs><path fill="url(#IconifyId1813088fe1fbc01fb466)" d="M128.001 0C93.481 0 66.92 8.373 48.337 25.117C29.753 41.86 20.47 67.214 20.47 101.187v95.624c0 33.974 9.283 59.328 27.867 76.07C66.92 295.624 93.481 304 128.001 304c34.52 0 61.08-8.376 79.664-25.119c18.584-16.743 27.867-42.096 27.867-76.07v-95.624c0-33.973-9.283-59.327-27.867-76.07C189.081 8.373 162.521 0 128.001 0Zm0 25.117c25.234 0 45.554 6.554 60.96 19.664c15.406 13.109 23.109 32.543 23.109 58.296v95.624c0 25.753-7.703 45.187-23.109 58.296c-15.406 13.11-35.726 19.664-60.96 19.664c-25.234 0-45.554-6.554-60.96-19.664c-15.406-13.109-23.109-32.543-23.109-58.296V102.99c0-25.753 7.703-45.187 23.109-58.296c15.406-13.11 35.726-19.664 60.96-19.664Z"></path><path fill="url(#IconifyId1813088fe1fbc01fb466)" d="M128.001 47.281c-15.894 0-28.795 4.342-38.703 13.027c-9.909 8.684-14.863 20.543-14.863 35.576v71.147c0 15.033 4.954 26.892 14.863 35.576c9.908 8.684 22.809 13.027 38.703 13.027c15.894 0 28.795-4.343 38.703-13.027c9.909-8.684 14.863-20.543 14.863-35.576v-71.147c0-15.033-4.954-26.892-14.863-35.576c-9.908-8.685-22.809-13.027-38.703-13.027Zm0 19.664c7.703 0 13.945 2.171 18.727 6.515c4.782 4.343 7.172 10.271 7.172 17.781v71.147c0 7.51-2.39 13.438-7.172 17.781c-4.782 4.343-11.024 6.515-18.727 6.515c-7.703 0-13.945-2.172-18.727-6.515c-4.782-4.343-7.172-10.271-7.172-17.781v-71.147c0-7.51 2.39-13.438 7.172-17.781c4.782-4.344 11.024-6.515 18.727-6.515Z"></path></svg>